<mxfile host="app.diagrams.net" modified="2023-07-18T08:56:55.439Z" agent="Mozilla/5.0 (Windows NT 10.0; Win64; x64) AppleWebKit/537.36 (KHTML, like Gecko) Chrome/114.0.0.0 Safari/537.36 Edg/114.0.1823.82" etag="JjX_zJqDv74EMsfzPWR9" version="21.6.2" type="github">
  <diagram name="第 1 页" id="sMasFaDb9k89zol1cY1E">
    <mxGraphModel dx="1622" dy="2105" grid="1" gridSize="10" guides="1" tooltips="1" connect="1" arrows="1" fold="1" page="1" pageScale="1" pageWidth="827" pageHeight="1169" math="0" shadow="0">
      <root>
        <mxCell id="0" />
        <mxCell id="1" parent="0" />
        <mxCell id="Bb5OvFUCuGvzxUChj8ti-1" value="b200" style="rounded=0;whiteSpace=wrap;html=1;" vertex="1" parent="1">
          <mxGeometry x="310" y="-320" width="120" height="60" as="geometry" />
        </mxCell>
        <mxCell id="Bb5OvFUCuGvzxUChj8ti-3" value="b200_core" style="rounded=0;whiteSpace=wrap;html=1;align=left;verticalAlign=top;" vertex="1" parent="1">
          <mxGeometry x="870" y="490" width="450" height="520" as="geometry" />
        </mxCell>
        <mxCell id="Bb5OvFUCuGvzxUChj8ti-5" value="b200" style="rounded=0;whiteSpace=wrap;html=1;" vertex="1" parent="1">
          <mxGeometry x="630" y="160" width="120" height="60" as="geometry" />
        </mxCell>
        <mxCell id="Bb5OvFUCuGvzxUChj8ti-6" value="gpif2_fx3_usb3.0" style="rounded=0;whiteSpace=wrap;html=1;" vertex="1" parent="1">
          <mxGeometry x="340" y="480" width="120" height="60" as="geometry" />
        </mxCell>
        <mxCell id="Bb5OvFUCuGvzxUChj8ti-7" value="gpif_sync&lt;br&gt;&lt;br&gt;输入复位信号 延迟打拍后输出复位信号" style="rounded=0;whiteSpace=wrap;html=1;align=left;verticalAlign=top;" vertex="1" parent="1">
          <mxGeometry x="20" y="650" width="120" height="70" as="geometry" />
        </mxCell>
        <mxCell id="Bb5OvFUCuGvzxUChj8ti-14" value="" style="group" vertex="1" connectable="0" parent="1">
          <mxGeometry x="910" y="530" width="200" height="120" as="geometry" />
        </mxCell>
        <mxCell id="Bb5OvFUCuGvzxUChj8ti-2" value="radio_ctrl_proc" style="rounded=0;whiteSpace=wrap;html=1;verticalAlign=top;align=left;" vertex="1" parent="Bb5OvFUCuGvzxUChj8ti-14">
          <mxGeometry width="200" height="120" as="geometry" />
        </mxCell>
        <mxCell id="Bb5OvFUCuGvzxUChj8ti-12" value="module&lt;br&gt;&lt;div style=&quot;color: rgb(204, 204, 204); background-color: rgb(31, 31, 31); font-family: Consolas, &amp;quot;Courier New&amp;quot;, monospace; font-size: 14px; line-height: 19px;&quot;&gt;&lt;div style=&quot;line-height: 19px;&quot;&gt;time_compare&lt;/div&gt;&lt;/div&gt;" style="rounded=0;whiteSpace=wrap;html=1;" vertex="1" parent="Bb5OvFUCuGvzxUChj8ti-14">
          <mxGeometry x="60" y="40" width="120" height="60" as="geometry" />
        </mxCell>
        <mxCell id="Bb5OvFUCuGvzxUChj8ti-15" value="" style="group" vertex="1" connectable="0" parent="1">
          <mxGeometry x="1070" y="610" width="200" height="290" as="geometry" />
        </mxCell>
        <mxCell id="Bb5OvFUCuGvzxUChj8ti-17" value="" style="group" vertex="1" connectable="0" parent="Bb5OvFUCuGvzxUChj8ti-15">
          <mxGeometry x="30" y="70" width="200" height="290" as="geometry" />
        </mxCell>
        <mxCell id="Bb5OvFUCuGvzxUChj8ti-4" value="sample_spi&lt;br&gt;内部通信" style="rounded=0;whiteSpace=wrap;html=1;align=left;verticalAlign=top;" vertex="1" parent="Bb5OvFUCuGvzxUChj8ti-17">
          <mxGeometry width="200" height="290" as="geometry" />
        </mxCell>
        <mxCell id="Bb5OvFUCuGvzxUChj8ti-8" value="reg_1&lt;br&gt;&lt;div style=&quot;color: rgb(204, 204, 204); background-color: rgb(31, 31, 31); font-family: Consolas, &amp;quot;Courier New&amp;quot;, monospace; font-size: 14px; line-height: 19px;&quot;&gt;sclk_divider&lt;/div&gt;" style="rounded=0;whiteSpace=wrap;html=1;" vertex="1" parent="Bb5OvFUCuGvzxUChj8ti-17">
          <mxGeometry x="60" y="50" width="120" height="60" as="geometry" />
        </mxCell>
        <mxCell id="Bb5OvFUCuGvzxUChj8ti-9" value="reg_2&lt;br&gt;&lt;div style=&quot;color: rgb(204, 204, 204); background-color: rgb(31, 31, 31); font-family: Consolas, &amp;quot;Courier New&amp;quot;, monospace; font-size: 14px; line-height: 19px;&quot;&gt;slave_select&lt;/div&gt;" style="rounded=0;whiteSpace=wrap;html=1;" vertex="1" parent="Bb5OvFUCuGvzxUChj8ti-17">
          <mxGeometry x="60" y="130" width="120" height="60" as="geometry" />
        </mxCell>
        <mxCell id="Bb5OvFUCuGvzxUChj8ti-10" value="reg_3&lt;br&gt;&lt;div style=&quot;color: rgb(204, 204, 204); background-color: rgb(31, 31, 31); font-family: Consolas, &amp;quot;Courier New&amp;quot;, monospace; font-size: 14px; line-height: 19px;&quot;&gt;mosi_data&lt;/div&gt;" style="rounded=0;whiteSpace=wrap;html=1;" vertex="1" parent="Bb5OvFUCuGvzxUChj8ti-17">
          <mxGeometry x="60" y="210" width="120" height="60" as="geometry" />
        </mxCell>
        <mxCell id="Bb5OvFUCuGvzxUChj8ti-18" value="bus_sync&lt;br&gt;&lt;br&gt;输入复位信号 延迟打拍后输出复位信号" style="rounded=0;whiteSpace=wrap;html=1;align=left;verticalAlign=top;" vertex="1" parent="1">
          <mxGeometry x="20" y="550" width="120" height="70" as="geometry" />
        </mxCell>
        <mxCell id="Bb5OvFUCuGvzxUChj8ti-19" value="" style="shape=flexArrow;endArrow=classic;startArrow=classic;html=1;rounded=0;" edge="1" parent="1">
          <mxGeometry width="100" height="100" relative="1" as="geometry">
            <mxPoint x="400" y="480" as="sourcePoint" />
            <mxPoint x="400" y="320" as="targetPoint" />
          </mxGeometry>
        </mxCell>
        <mxCell id="Bb5OvFUCuGvzxUChj8ti-20" value="&lt;font style=&quot;font-size: 18px;&quot;&gt;上位机&lt;/font&gt;" style="rounded=0;whiteSpace=wrap;html=1;" vertex="1" parent="1">
          <mxGeometry x="340" y="260" width="120" height="60" as="geometry" />
        </mxCell>
        <mxCell id="Bb5OvFUCuGvzxUChj8ti-21" value="" style="shape=flexArrow;endArrow=classic;startArrow=classic;html=1;rounded=0;" edge="1" parent="1">
          <mxGeometry width="100" height="100" relative="1" as="geometry">
            <mxPoint x="460" y="520" as="sourcePoint" />
            <mxPoint x="870" y="520" as="targetPoint" />
          </mxGeometry>
        </mxCell>
        <mxCell id="Bb5OvFUCuGvzxUChj8ti-24" value="&lt;div style=&quot;&quot;&gt;&lt;span style=&quot;background-color: initial;&quot;&gt;b200_io&lt;/span&gt;&lt;/div&gt;实现B200收发信号的输入输出功能" style="rounded=0;whiteSpace=wrap;html=1;align=left;verticalAlign=top;" vertex="1" parent="1">
          <mxGeometry x="340" y="875" width="260" height="135" as="geometry" />
        </mxCell>
        <mxCell id="Bb5OvFUCuGvzxUChj8ti-25" value="" style="shape=flexArrow;endArrow=classic;html=1;rounded=0;" edge="1" parent="1">
          <mxGeometry width="50" height="50" relative="1" as="geometry">
            <mxPoint x="120" y="940" as="sourcePoint" />
            <mxPoint x="340" y="940" as="targetPoint" />
          </mxGeometry>
        </mxCell>
        <mxCell id="Bb5OvFUCuGvzxUChj8ti-26" value="" style="shape=flexArrow;endArrow=classic;html=1;rounded=0;entryX=-0.001;entryY=0.809;entryDx=0;entryDy=0;entryPerimeter=0;" edge="1" parent="1" target="Bb5OvFUCuGvzxUChj8ti-3">
          <mxGeometry width="50" height="50" relative="1" as="geometry">
            <mxPoint x="600" y="910" as="sourcePoint" />
            <mxPoint x="820" y="910" as="targetPoint" />
          </mxGeometry>
        </mxCell>
        <mxCell id="Bb5OvFUCuGvzxUChj8ti-27" value="b200" style="rounded=0;whiteSpace=wrap;html=1;" vertex="1" parent="1">
          <mxGeometry x="980" y="160" width="120" height="60" as="geometry" />
        </mxCell>
        <mxCell id="Bb5OvFUCuGvzxUChj8ti-28" value="b200" style="rounded=0;whiteSpace=wrap;html=1;" vertex="1" parent="1">
          <mxGeometry x="980" y="270" width="120" height="60" as="geometry" />
        </mxCell>
        <mxCell id="Bb5OvFUCuGvzxUChj8ti-29" value="b200" style="rounded=0;whiteSpace=wrap;html=1;" vertex="1" parent="1">
          <mxGeometry x="630" y="270" width="120" height="60" as="geometry" />
        </mxCell>
        <mxCell id="Bb5OvFUCuGvzxUChj8ti-30" value="b200" style="rounded=0;whiteSpace=wrap;html=1;" vertex="1" parent="1">
          <mxGeometry x="630" y="360" width="120" height="60" as="geometry" />
        </mxCell>
        <mxCell id="Bb5OvFUCuGvzxUChj8ti-31" value="b200" style="rounded=0;whiteSpace=wrap;html=1;" vertex="1" parent="1">
          <mxGeometry x="980" y="360" width="120" height="60" as="geometry" />
        </mxCell>
      </root>
    </mxGraphModel>
  </diagram>
</mxfile>
